<mxfile host="app.diagrams.net" modified="2022-06-17T05:52:07.362Z" agent="5.0 (Macintosh; Intel Mac OS X 10_15_0) AppleWebKit/537.36 (KHTML, like Gecko) Chrome/102.0.5005.61 Safari/537.36" etag="w8izzc8Q02sylQc8X-HN" version="18.0.3" type="github">
  <diagram name="Page-1" id="74e2e168-ea6b-b213-b513-2b3c1d86103e">
    <mxGraphModel dx="946" dy="591" grid="1" gridSize="10" guides="1" tooltips="1" connect="1" arrows="1" fold="1" page="1" pageScale="1" pageWidth="1100" pageHeight="850" background="none" math="0" shadow="0">
      <root>
        <mxCell id="0" />
        <mxCell id="1" parent="0" />
        <mxCell id="77e6c97f196da883-1" value="分派要執行的任務" style="swimlane;html=1;childLayout=stackLayout;startSize=20;rounded=0;shadow=0;labelBackgroundColor=none;strokeWidth=1;fontFamily=Verdana;fontSize=8;align=center;" parent="1" vertex="1">
          <mxGeometry x="80" y="15" width="900" height="1105" as="geometry" />
        </mxCell>
        <mxCell id="77e6c97f196da883-26" style="edgeStyle=orthogonalEdgeStyle;rounded=0;html=1;labelBackgroundColor=none;startArrow=none;startFill=0;startSize=5;endArrow=classic;endFill=1;endSize=5;jettySize=auto;orthogonalLoop=1;strokeWidth=1;fontFamily=Verdana;fontSize=8;exitX=0.5;exitY=1;exitDx=0;exitDy=0;" parent="77e6c97f196da883-1" source="77e6c97f196da883-8" target="77e6c97f196da883-11" edge="1">
          <mxGeometry relative="1" as="geometry">
            <Array as="points">
              <mxPoint x="98" y="145" />
              <mxPoint x="520" y="145" />
            </Array>
          </mxGeometry>
        </mxCell>
        <mxCell id="n-TsQOT9_kh-WB-ooVJh-15" value="" style="edgeStyle=orthogonalEdgeStyle;rounded=0;orthogonalLoop=1;jettySize=auto;html=1;exitX=0.5;exitY=1;exitDx=0;exitDy=0;" edge="1" parent="77e6c97f196da883-1" source="n-TsQOT9_kh-WB-ooVJh-10" target="n-TsQOT9_kh-WB-ooVJh-14">
          <mxGeometry relative="1" as="geometry" />
        </mxCell>
        <mxCell id="n-TsQOT9_kh-WB-ooVJh-11" value="" style="edgeStyle=orthogonalEdgeStyle;rounded=0;orthogonalLoop=1;jettySize=auto;html=1;entryX=0.5;entryY=0;entryDx=0;entryDy=0;" edge="1" parent="77e6c97f196da883-1" source="n-TsQOT9_kh-WB-ooVJh-3" target="n-TsQOT9_kh-WB-ooVJh-10">
          <mxGeometry relative="1" as="geometry">
            <Array as="points">
              <mxPoint x="520" y="340" />
            </Array>
          </mxGeometry>
        </mxCell>
        <mxCell id="n-TsQOT9_kh-WB-ooVJh-24" value="是" style="edgeLabel;html=1;align=center;verticalAlign=middle;resizable=0;points=[];" vertex="1" connectable="0" parent="n-TsQOT9_kh-WB-ooVJh-11">
          <mxGeometry x="-0.0656" y="-1" relative="1" as="geometry">
            <mxPoint as="offset" />
          </mxGeometry>
        </mxCell>
        <mxCell id="77e6c97f196da883-2" value="Scheduler" style="swimlane;html=1;startSize=20;" parent="77e6c97f196da883-1" vertex="1">
          <mxGeometry y="20" width="390" height="1085" as="geometry" />
        </mxCell>
        <mxCell id="77e6c97f196da883-8" value="開始流程(每15秒執行一次)" style="rounded=1;whiteSpace=wrap;html=1;shadow=0;labelBackgroundColor=none;strokeWidth=1;fontFamily=Verdana;fontSize=8;align=center;" parent="77e6c97f196da883-2" vertex="1">
          <mxGeometry x="40" y="35" width="115" height="70" as="geometry" />
        </mxCell>
        <mxCell id="77e6c97f196da883-10" value="&lt;span style=&quot;&quot;&gt;結束流程&lt;/span&gt;" style="rounded=1;whiteSpace=wrap;html=1;shadow=0;labelBackgroundColor=none;strokeWidth=1;fontFamily=Verdana;fontSize=8;align=center;" parent="77e6c97f196da883-2" vertex="1">
          <mxGeometry x="40" y="995" width="120" height="70" as="geometry" />
        </mxCell>
        <mxCell id="n-TsQOT9_kh-WB-ooVJh-9" value="" style="edgeStyle=orthogonalEdgeStyle;rounded=0;orthogonalLoop=1;jettySize=auto;html=1;" edge="1" parent="77e6c97f196da883-2" source="n-TsQOT9_kh-WB-ooVJh-3" target="77e6c97f196da883-10">
          <mxGeometry relative="1" as="geometry" />
        </mxCell>
        <mxCell id="n-TsQOT9_kh-WB-ooVJh-23" value="否" style="edgeLabel;html=1;align=center;verticalAlign=middle;resizable=0;points=[];" vertex="1" connectable="0" parent="n-TsQOT9_kh-WB-ooVJh-9">
          <mxGeometry x="-0.8324" y="2" relative="1" as="geometry">
            <mxPoint as="offset" />
          </mxGeometry>
        </mxCell>
        <mxCell id="n-TsQOT9_kh-WB-ooVJh-3" value="&lt;span style=&quot;&quot;&gt;是否有查到資料&lt;/span&gt;" style="rhombus;whiteSpace=wrap;html=1;fontSize=8;fontFamily=Verdana;rounded=0;shadow=0;labelBackgroundColor=none;strokeWidth=1;" vertex="1" parent="77e6c97f196da883-2">
          <mxGeometry x="193.75" y="275" width="100" height="90" as="geometry" />
        </mxCell>
        <mxCell id="n-TsQOT9_kh-WB-ooVJh-16" style="edgeStyle=orthogonalEdgeStyle;rounded=0;orthogonalLoop=1;jettySize=auto;html=1;entryX=0.5;entryY=0;entryDx=0;entryDy=0;" edge="1" parent="77e6c97f196da883-2" source="n-TsQOT9_kh-WB-ooVJh-14" target="77e6c97f196da883-10">
          <mxGeometry relative="1" as="geometry" />
        </mxCell>
        <mxCell id="n-TsQOT9_kh-WB-ooVJh-25" value="否" style="edgeLabel;html=1;align=center;verticalAlign=middle;resizable=0;points=[];" vertex="1" connectable="0" parent="n-TsQOT9_kh-WB-ooVJh-16">
          <mxGeometry x="-0.8637" y="1" relative="1" as="geometry">
            <mxPoint x="-31" y="-1" as="offset" />
          </mxGeometry>
        </mxCell>
        <mxCell id="n-TsQOT9_kh-WB-ooVJh-14" value="&lt;span style=&quot;&quot;&gt;是否有查到資料&lt;/span&gt;" style="rhombus;whiteSpace=wrap;html=1;fontSize=8;fontFamily=Verdana;rounded=0;shadow=0;labelBackgroundColor=none;strokeWidth=1;" vertex="1" parent="77e6c97f196da883-2">
          <mxGeometry x="193.75" y="515" width="100" height="90" as="geometry" />
        </mxCell>
        <mxCell id="n-TsQOT9_kh-WB-ooVJh-19" value="組裝任務資料（task_node,&lt;br&gt;task_loading,&lt;br&gt;pre_task_nodes)" style="whiteSpace=wrap;html=1;fontSize=8;fontFamily=Verdana;rounded=1;shadow=0;labelBackgroundColor=none;strokeWidth=1;" vertex="1" parent="77e6c97f196da883-2">
          <mxGeometry x="182.5" y="735" width="122.5" height="70" as="geometry" />
        </mxCell>
        <mxCell id="n-TsQOT9_kh-WB-ooVJh-18" value="" style="edgeStyle=orthogonalEdgeStyle;rounded=0;orthogonalLoop=1;jettySize=auto;html=1;entryX=0.5;entryY=0;entryDx=0;entryDy=0;" edge="1" parent="77e6c97f196da883-1" source="n-TsQOT9_kh-WB-ooVJh-14" target="n-TsQOT9_kh-WB-ooVJh-17">
          <mxGeometry relative="1" as="geometry" />
        </mxCell>
        <mxCell id="n-TsQOT9_kh-WB-ooVJh-26" value="是" style="edgeLabel;html=1;align=center;verticalAlign=middle;resizable=0;points=[];" vertex="1" connectable="0" parent="n-TsQOT9_kh-WB-ooVJh-18">
          <mxGeometry x="-0.1264" y="1" relative="1" as="geometry">
            <mxPoint as="offset" />
          </mxGeometry>
        </mxCell>
        <mxCell id="n-TsQOT9_kh-WB-ooVJh-20" value="" style="edgeStyle=orthogonalEdgeStyle;rounded=0;orthogonalLoop=1;jettySize=auto;html=1;entryX=0.5;entryY=0;entryDx=0;entryDy=0;" edge="1" parent="77e6c97f196da883-1" source="n-TsQOT9_kh-WB-ooVJh-17" target="n-TsQOT9_kh-WB-ooVJh-19">
          <mxGeometry relative="1" as="geometry">
            <mxPoint x="320" y="780" as="targetPoint" />
            <Array as="points">
              <mxPoint x="520" y="725" />
              <mxPoint x="244" y="725" />
            </Array>
          </mxGeometry>
        </mxCell>
        <mxCell id="n-TsQOT9_kh-WB-ooVJh-21" value="" style="edgeStyle=orthogonalEdgeStyle;rounded=0;orthogonalLoop=1;jettySize=auto;html=1;entryX=0.5;entryY=0;entryDx=0;entryDy=0;" edge="1" parent="77e6c97f196da883-1" source="n-TsQOT9_kh-WB-ooVJh-19" target="n-TsQOT9_kh-WB-ooVJh-2">
          <mxGeometry relative="1" as="geometry">
            <mxPoint x="716.25" y="870" as="targetPoint" />
            <Array as="points">
              <mxPoint x="244" y="855" />
              <mxPoint x="775" y="855" />
            </Array>
          </mxGeometry>
        </mxCell>
        <mxCell id="n-TsQOT9_kh-WB-ooVJh-22" style="edgeStyle=orthogonalEdgeStyle;rounded=0;orthogonalLoop=1;jettySize=auto;html=1;entryX=0.5;entryY=0;entryDx=0;entryDy=0;exitX=0.5;exitY=1;exitDx=0;exitDy=0;" edge="1" parent="77e6c97f196da883-1" source="n-TsQOT9_kh-WB-ooVJh-2" target="77e6c97f196da883-10">
          <mxGeometry relative="1" as="geometry">
            <mxPoint x="770" y="910" as="sourcePoint" />
            <Array as="points">
              <mxPoint x="775" y="980" />
              <mxPoint x="100" y="980" />
            </Array>
          </mxGeometry>
        </mxCell>
        <mxCell id="77e6c97f196da883-3" value="DB" style="swimlane;html=1;startSize=20;" parent="77e6c97f196da883-1" vertex="1">
          <mxGeometry x="390" y="20" width="260" height="1085" as="geometry" />
        </mxCell>
        <mxCell id="77e6c97f196da883-11" value="查詢進程已啟用(process.is_enable)&lt;br&gt;且進程的下次執行時間(process.next_exec_time)等同現在" style="rounded=1;whiteSpace=wrap;html=1;shadow=0;labelBackgroundColor=none;strokeWidth=1;fontFamily=Verdana;fontSize=8;align=center;" parent="77e6c97f196da883-3" vertex="1">
          <mxGeometry x="45" y="145" width="170" height="90" as="geometry" />
        </mxCell>
        <mxCell id="n-TsQOT9_kh-WB-ooVJh-17" value="建立進程紀錄(process_record)" style="whiteSpace=wrap;html=1;fontSize=8;fontFamily=Verdana;rounded=1;shadow=0;labelBackgroundColor=none;strokeWidth=1;" vertex="1" parent="77e6c97f196da883-3">
          <mxGeometry x="60" y="595" width="140" height="75" as="geometry" />
        </mxCell>
        <mxCell id="n-TsQOT9_kh-WB-ooVJh-10" value="查詢同一進程下的所有任務的下次執行時間(process_task.next_exec_time)等同現在" style="whiteSpace=wrap;html=1;fontSize=8;fontFamily=Verdana;rounded=1;shadow=0;labelBackgroundColor=none;strokeWidth=1;" vertex="1" parent="77e6c97f196da883-3">
          <mxGeometry x="35" y="355" width="190" height="95" as="geometry" />
        </mxCell>
        <mxCell id="n-TsQOT9_kh-WB-ooVJh-1" value="Zookeeper" style="swimlane;html=1;startSize=20;" vertex="1" parent="77e6c97f196da883-1">
          <mxGeometry x="650" y="20" width="250" height="1085" as="geometry" />
        </mxCell>
        <mxCell id="n-TsQOT9_kh-WB-ooVJh-2" value="寫入節點資訊" style="rounded=1;whiteSpace=wrap;html=1;shadow=0;labelBackgroundColor=none;strokeWidth=1;fontFamily=Verdana;fontSize=8;align=center;" vertex="1" parent="n-TsQOT9_kh-WB-ooVJh-1">
          <mxGeometry x="66.25" y="865" width="117.5" height="70" as="geometry" />
        </mxCell>
        <mxCell id="n-TsQOT9_kh-WB-ooVJh-27" style="edgeStyle=orthogonalEdgeStyle;rounded=0;orthogonalLoop=1;jettySize=auto;html=1;entryX=0.5;entryY=0;entryDx=0;entryDy=0;endArrow=classic;endFill=1;exitX=0.5;exitY=1;exitDx=0;exitDy=0;" edge="1" parent="77e6c97f196da883-1" source="77e6c97f196da883-11" target="n-TsQOT9_kh-WB-ooVJh-3">
          <mxGeometry relative="1" as="geometry" />
        </mxCell>
      </root>
    </mxGraphModel>
  </diagram>
</mxfile>
